<svg version="1.1" xmlns="http://www.w3.org/2000/svg" style="display: block;" viewBox="0 0 2048 2048" width="1024" height="1024">
<path transform="translate(0,0)" fill="rgb(233,249,224)" d="M 0 0 L 2048 0 L 2048 136.591 L 2048 160.075 L 2048 2048 L 0 2048 L 0 224.419 L 0 207.27 L 0 0 z"/>
<path transform="translate(0,0)" fill="rgb(47,34,36)" d="M 1984.99 458.983 C 1986.81 459.138 1987.99 459.423 1989.68 460.208 C 1992.59 461.559 1994.88 464.041 1995.75 467.153 C 1996.87 471.203 1995.53 475.712 1993.53 479.273 C 1990.76 484.193 1987.12 485.771 1981.91 487.365 C 1980.96 487.094 1980.01 486.836 1979.07 486.511 C 1975.43 485.248 1972 482.521 1970.66 478.792 C 1969.52 475.622 1970.1 472.129 1971.56 469.177 C 1974.43 463.365 1979.02 460.777 1984.99 458.983 z"/>
<path transform="translate(0,0)" fill="rgb(47,34,36)" d="M 1697.11 302.965 C 1703.52 303.519 1708.18 305.636 1713.7 308.718 C 1713.92 309.633 1714.12 310.552 1714.36 311.463 C 1716.3 319.06 1717.07 326.774 1713.03 333.967 C 1709.84 339.641 1705.6 342.268 1699.43 343.78 C 1697.01 343.467 1694.47 343.18 1692.18 342.28 C 1686.71 340.125 1681.87 335.569 1679.91 329.974 C 1678.18 325.044 1678.61 319.711 1680.93 315.05 C 1684.48 307.913 1689.91 305.376 1697.11 302.965 z"/>
<path transform="translate(0,0)" fill="rgb(47,34,36)" d="M 1691.23 368.015 C 1694.05 367.412 1698.67 367.329 1701.35 368.563 C 1704.12 369.84 1705.81 371.746 1706.95 374.517 C 1708.01 377.084 1708.7 380.129 1708.45 382.917 C 1707.34 395.518 1692.83 454.162 1688.03 465.827 C 1685.71 471.456 1681.68 474.142 1676.27 476.518 C 1673.32 476.349 1670.27 476.243 1667.41 475.397 C 1662.89 474.06 1659.7 471.359 1657.61 467.155 C 1651.72 455.325 1667.74 407.823 1672.27 393.949 C 1676.63 380.602 1678.36 374.568 1691.23 368.015 z"/>
<path transform="translate(0,0)" fill="rgb(47,34,36)" d="M 2003.71 297.15 C 2004.24 297.146 2004.77 297.135 2005.3 297.137 C 2014.2 297.18 2017.24 300.417 2023.1 306.47 C 2023.7 309.653 2024.23 312.844 2024.09 316.093 C 2023.23 335.989 2007.84 410.099 1999.72 429.038 C 1998.36 432.224 1996.38 434.428 1993.88 436.771 C 1991.04 437.51 1988.12 438.38 1985.19 437.803 C 1981.66 437.11 1978.5 435.108 1976.8 431.879 C 1969.71 418.464 1985.48 330.63 1990.65 312.822 C 1992.91 305.056 1996.65 300.955 2003.71 297.15 z"/>
<path transform="translate(0,0)" fill="rgb(168,184,162)" d="M 1965.04 728.3 C 1973.02 727.856 1980.29 729.115 1987.29 733.106 A 40.0561 40.0561 0 0 1 2005.93 757.685 A 41.4153 41.4153 0 0 1 2001.62 788.945 C 1995.03 800.149 1985.36 804.258 1973.3 807.098 C 1963.54 807.41 1954.12 805.684 1945.87 800.203 C 1937.27 794.491 1930.91 784.875 1929.19 774.675 A 41.2149 41.2149 0 0 1 1936.3 744.234 C 1943.4 734.365 1953.37 729.972 1965.04 728.3 z"/>
<path transform="translate(0,0)" fill="rgb(168,184,162)" d="M 1858.18 605.746 C 1860.02 605.78 1862.21 605.702 1863.97 606.344 C 1874.46 610.178 1878.2 646.931 1883.88 657.007 C 1890.48 668.722 1912.32 666.709 1918.28 678.285 C 1919.37 680.391 1919.34 682.98 1918.53 685.175 C 1916.09 691.823 1906.06 695.345 1900.13 698.248 C 1895.34 700.586 1890 702.988 1886.37 707.011 C 1877.86 716.44 1875.16 743.125 1870.54 755.821 C 1868.69 760.89 1867.5 763.62 1862.52 765.999 C 1859.86 765.88 1856.3 766.025 1854.08 764.328 C 1844.32 756.861 1839.2 719.695 1829.94 707.241 C 1824.22 699.547 1812.52 698.147 1805.48 691.967 C 1802.75 689.574 1801.2 686.518 1801.21 682.852 C 1801.23 672.276 1828.15 666.729 1834.85 658.416 C 1846.97 643.387 1843.3 619.164 1858.18 605.746 z"/>
<path transform="translate(0,0)" fill="rgb(47,34,36)" d="M 774.105 344.973 C 776.821 344.903 779.543 344.864 782.244 345.205 C 791.262 346.34 800.895 350.764 806.217 358.391 C 809.273 362.771 810.586 368.133 809.367 373.38 C 807.518 381.338 802.123 384.994 795.693 389.111 C 788.763 386.177 783.389 380.044 776.059 378.662 C 774.582 379.01 773.346 379.356 772.14 380.334 C 769.221 382.701 765.35 388.058 765.351 391.994 C 765.352 401.723 794.509 414.606 801.7 424.614 C 808.138 433.575 808.931 445.09 806.828 455.642 C 804.586 466.888 797.569 475.459 788.139 481.703 C 770.428 493.432 751.404 491.744 731.749 487.413 A 244.628 244.628 0 0 1 725.319 484.393 C 714.692 479.183 705.07 470.162 701.496 458.587 C 700.129 454.162 700.132 449.736 702.618 445.701 C 705.146 441.596 710.152 437.555 714.961 436.629 C 726.159 434.472 733.586 450.216 742.068 455.477 C 747.983 459.146 754.651 460.127 761.377 458.348 C 765.748 457.192 770.016 455.366 772.133 451.111 C 778.247 438.817 755.342 429.501 748.133 423.485 C 742.255 418.58 737.115 411.465 734.437 404.287 C 730.869 394.725 732.328 384.697 736.676 375.648 C 744.48 359.407 757.646 350.945 774.105 344.973 z"/>
<path transform="translate(0,0)" fill="rgb(47,34,36)" d="M 884.041 295.09 A 128.947 128.947 0 0 1 886.124 295.008 C 890.539 294.901 895.891 295.302 898.966 298.985 C 909.312 311.379 891.496 333.791 892.235 346.728 C 892.256 347.094 892.169 347.543 892.416 347.815 C 893.137 348.608 913.319 349.074 920.849 356.24 C 923.233 358.509 924.621 361.413 924.477 364.756 C 924.286 369.212 922.028 374.006 918.651 376.927 C 909.562 384.787 893.101 381.723 881.995 380.933 C 878.756 393.76 876.337 408.712 876.833 421.952 C 877.001 426.448 877.583 434.045 881.606 436.971 C 886.562 440.574 895.401 439.078 901.147 438.695 C 903.757 439.956 907.958 441.516 909.801 443.692 C 912.641 447.044 913.731 451.053 912.964 455.372 C 911.788 461.995 905.643 466.376 900.335 469.551 C 892.688 472.43 884.905 473.623 876.772 472.238 C 866.833 470.546 858.668 464.697 853.036 456.434 C 838.369 434.916 843.234 405.02 847.707 381.09 C 839.411 380.988 832.746 380.876 825.886 375.421 C 822.566 372.781 819.899 368.797 819.876 364.416 C 819.853 359.97 822.082 355.938 825.265 352.942 C 834.111 344.616 845.516 345.66 856.683 346.105 C 861.367 329.642 869.063 304.564 884.041 295.09 z"/>
<path transform="translate(0,0)" fill="rgb(47,34,36)" d="M 989.142 363.414 C 990.048 363.27 991 363.078 991.927 363.055 C 1001.11 362.836 1013.32 366.995 1019.86 373.4 C 1025.38 378.8 1028.86 386.463 1028.82 394.23 C 1028.78 402.199 1024.89 409.419 1019.23 414.85 C 1004.83 428.67 979.014 433.601 959.714 433.093 C 985.132 458.67 1005.72 424.407 1026.06 428.777 C 1029.96 429.615 1032.55 432.165 1034.42 435.575 C 1037.2 440.62 1037.62 444.884 1035.95 450.335 C 1025.27 463.573 1010.17 471.525 993.368 473.694 C 976.009 475.935 957.811 472.879 943.834 461.825 C 933.646 453.768 928.467 442.379 927.312 429.575 A 56.0921 56.0921 0 0 1 940.739 387.938 C 953.566 373.01 969.619 364.861 989.142 363.414 z"/>
<path transform="translate(0,0)" fill="rgb(254,254,254)" d="M 992.193 393.014 C 994.611 394.045 996.016 394.186 997.53 396.439 C 993.65 402.014 978.215 404.122 971.353 406.898 L 967.795 407.881 L 967.231 406.707 C 972.42 399.893 984.221 395.429 992.193 393.014 z"/>
<path transform="translate(0,0)" fill="rgb(47,34,36)" d="M 618.781 358.946 C 623.324 359.137 627.312 360.306 631.653 361.529 C 644.5 377.288 648.031 397.347 658.184 414.546 C 670.264 401.87 670.171 387.476 678.076 373.293 C 680.556 368.843 685.224 364.912 690.246 363.739 C 693.738 362.923 697.553 363.57 700.47 365.689 C 705.21 369.131 707.615 375.16 708.162 380.828 C 711.286 413.172 669.721 475.061 649.404 499.888 C 639.112 511.653 621.244 533.851 607.217 539.845 C 603.055 541.624 598.645 541.912 594.477 539.98 C 590.436 538.106 587.322 534.28 586.011 530.055 C 584.564 525.391 585.395 520.964 587.72 516.764 C 592.733 507.705 601.717 500.238 608.931 492.911 C 622.094 479.54 634.941 465.508 644.067 449.002 C 639.271 446.574 634.262 444.072 631.159 439.508 C 624.249 429.34 604.258 382.147 606.848 371.241 C 608.31 365.081 613.841 362.07 618.781 358.946 z"/>
<path transform="translate(0,0)" fill="rgb(47,34,36)" d="M 1905.68 360.229 C 1910.7 358.773 1919.69 360.655 1924.42 362.571 C 1936.59 367.508 1946.67 379.84 1951.27 391.783 C 1959.72 413.712 1959.24 479.793 1949.68 499.937 C 1947.45 504.63 1943.72 508.346 1938.66 509.833 C 1934.35 511.099 1928.8 511.785 1924.82 509.202 C 1919.53 505.772 1917.88 498.423 1917.65 492.551 C 1917.35 485.236 1919.41 477.175 1920.51 469.923 C 1923.11 452.82 1925.71 430.573 1921.85 413.602 C 1919.67 404.003 1915.88 399.8 1907.97 394.617 C 1904.27 396.59 1901.03 398.842 1897.69 401.374 C 1879.88 420.162 1874.82 451.024 1871.47 475.744 C 1870.17 485.368 1869.74 497.138 1864.64 505.596 C 1862.28 509.504 1858.05 511.858 1853.67 512.778 C 1850.09 513.532 1847.37 512.83 1844.43 510.786 C 1839.68 507.485 1835.03 501.636 1834.26 495.768 C 1832.12 479.456 1845.51 425.747 1851.91 409.079 C 1855.38 400.067 1860.01 391.303 1865.82 383.58 C 1875.99 370.067 1888.94 362.56 1905.68 360.229 z"/>
<path transform="translate(0,0)" fill="rgb(47,34,36)" d="M 158.669 302.353 L 160.639 302.282 C 181.777 301.546 241.104 301.45 255.919 316.295 C 259.441 319.824 261.161 324.416 261.159 329.372 C 261.157 333.384 260.1 337.361 257.125 340.2 C 246.439 350.396 217.296 341.173 203.617 340.839 L 202.149 340.812 C 190.715 371.836 182.903 412.469 181.042 445.421 C 180.157 461.093 187.144 477.401 181.435 492.579 C 179.816 495.173 178.015 497.651 175.338 499.225 C 171.614 501.416 167.202 502.155 163.023 500.936 C 157.847 499.426 153.927 495.124 151.489 490.48 C 132.879 455.029 154.651 375.314 166.851 339.172 C 154.856 338.733 120.449 346.604 112.99 341.869 C 109.095 339.396 106.722 334.918 105.791 330.5 C 104.893 326.232 105.171 320.967 107.843 317.332 C 115.347 307.124 145.86 304.021 158.669 302.353 z"/>
<path transform="translate(0,0)" fill="rgb(47,34,36)" d="M 1179.74 360.37 C 1185.22 359.307 1193.16 361.321 1197.93 364.164 C 1207.03 369.581 1212.34 381.078 1214.76 391.054 C 1218.58 406.794 1217.04 459.159 1208.63 472.281 C 1206.18 476.119 1202.42 479.407 1197.84 480.27 C 1194.1 480.974 1190.23 479.977 1187.11 477.835 C 1169.06 465.431 1186.49 416.581 1181.83 395.597 C 1180.63 394.829 1180.37 394.224 1178.86 394.58 C 1174.85 395.525 1170.18 399.154 1167.07 401.825 C 1141.34 423.951 1154.24 462.241 1140.63 479.171 C 1138.09 482.324 1134.77 484.296 1130.68 484.466 C 1126.04 484.659 1120.53 482.803 1117.33 479.352 C 1108.67 470.021 1112.97 446.398 1113.74 434.658 C 1113.71 425.226 1113.2 415.071 1110.04 406.101 C 1108.68 402.236 1107.29 399.56 1103.45 397.799 C 1100.12 397.756 1098.06 398.87 1095.65 401.039 C 1077.95 416.986 1078.18 450.524 1076.81 472.609 C 1074.97 475.867 1072.78 479.398 1069.98 481.903 C 1066.74 484.791 1062.72 485.757 1058.47 485.563 C 1054.46 485.381 1051.33 483.832 1048.8 480.698 C 1038.99 468.542 1044.2 442.378 1046.33 427.64 C 1049.49 405.719 1055.86 385.721 1074.4 372.042 C 1084.12 364.873 1095.47 361.115 1107.56 363.287 C 1121 365.7 1129.39 375.34 1136.81 385.926 C 1148.46 372.206 1161.56 362.819 1179.74 360.37 z"/>
<path transform="translate(0,0)" fill="rgb(47,34,36)" d="M 377.869 298.973 C 381.218 298.946 384.358 298.868 387.461 300.3 C 392.207 302.491 395.71 305.98 397.287 311.035 C 403.296 330.301 372.825 387.127 362.507 405.619 C 338.683 448.316 310.085 486.558 273.096 518.784 C 261.707 528.707 249.746 538.89 234.987 543.083 C 231.64 542.191 228.323 541.139 225 540.159 C 221.979 536.484 219.5 532.501 216.936 528.506 C 217.502 524.955 217.882 520.833 219.584 517.624 C 225.343 506.761 251.694 489.381 262.431 480.295 C 275.828 468.673 295.739 449.289 303.057 433.514 C 297.899 428.619 292.898 423.763 288.951 417.794 C 274.342 395.699 269.259 348.819 274.734 323.329 C 276.348 315.811 279.592 307.911 286.484 303.763 C 290.215 301.517 295.144 301.134 299.314 302.271 C 319.733 307.835 303.429 370.706 316.519 393.889 C 318.171 396.816 319.994 398 323.231 398.956 C 335.177 395.567 359.754 321.352 368.282 308.005 C 370.869 303.956 373.821 301.478 377.869 298.973 z"/>
<path transform="translate(0,0)" fill="rgb(47,34,36)" d="M 538.387 291.37 C 551.219 290.814 562.924 289.897 574.828 296.025 C 585.983 301.767 591.208 309.72 594.975 321.22 C 594.35 323.898 593.609 326.772 592.291 329.211 C 590.439 332.636 587.413 335.607 583.575 336.607 C 574.285 339.028 563.733 331.112 555.937 326.824 A 76.5639 76.5639 0 0 0 514.796 339.549 C 509.793 342.813 502.351 348.365 501.718 354.884 C 501.411 358.049 502.947 360.639 505.382 362.525 C 510.795 366.717 517.952 369.229 524.181 371.963 C 545.834 381.469 569.297 390.754 583.263 411.019 C 589.697 420.356 592.062 430.971 589.992 442.141 C 586.219 462.497 573.45 478.995 556.654 490.447 C 534.648 505.453 505.239 507.625 479.688 502.914 C 464.712 498.222 450.23 491.914 440.91 478.548 C 437.121 473.113 434.288 465.598 435.818 458.913 C 436.629 455.368 438.662 452.546 441.898 450.789 C 449.774 446.511 458.028 448.754 465.986 451.122 C 470.408 455.698 473.587 460.678 478.854 464.541 C 481.702 466.63 502.934 470.501 506.417 469.963 C 509.351 469.509 512.305 469.173 515.231 468.678 C 529.581 466.25 542.6 458.492 550.806 446.396 C 553.383 442.598 555.72 438.648 554.532 433.894 C 550.377 417.269 500.754 402.496 486.207 392.616 C 475.647 385.444 465.204 374.471 463 361.485 C 461.127 350.448 465.736 339.516 471.942 330.594 C 486.147 310.173 514.329 295.55 538.387 291.37 z"/>
<path transform="translate(0,0)" fill="rgb(47,34,36)" d="M 1766.85 363.112 A 201.509 201.509 0 0 1 1772.43 362.906 C 1787.69 362.583 1796.72 369.065 1807.24 379.171 L 1808 378.576 C 1808.54 375.88 1808.96 372.243 1810.59 369.97 A 16.9256 16.9256 0 0 1 1821.35 363.1 C 1825.17 362.388 1829.13 362.919 1832.35 365.214 C 1835.71 367.61 1836.88 371.648 1837.55 375.518 C 1841.47 398.242 1828.8 472.615 1821.2 497.023 C 1818.49 505.729 1814.98 514.213 1809.57 521.605 C 1799.2 535.793 1784.56 544.973 1767.05 547.311 C 1750.64 549.505 1735.41 543.44 1722.45 533.835 C 1719.2 531.46 1716.23 528.83 1713.75 525.634 C 1710.96 522.032 1708.56 516.837 1709.42 512.18 C 1710.44 506.685 1714.32 500.31 1719.12 497.34 C 1732.46 489.082 1747.05 509.328 1759.2 512.209 C 1763.81 513.302 1768.29 512.498 1772.29 509.98 C 1785.39 501.729 1788.39 485.051 1791.85 471.168 C 1776.3 474.832 1763.23 477.866 1747.8 470.551 A 49.782 49.782 0 0 1 1721.7 440.607 C 1716.95 425.476 1720.1 407.474 1727.65 393.739 C 1736.19 378.217 1749.96 368.013 1766.85 363.112 z"/>
<path transform="translate(0,0)" fill="rgb(233,249,224)" d="M 1770.86 397.224 C 1772.24 397.72 1773.89 397.569 1775.33 397.522 L 1776.67 397.466 C 1781.87 400.314 1785.9 404.578 1787.98 410.204 C 1790.45 416.904 1790.38 424.436 1787.26 430.9 C 1784.33 436.989 1779.53 439.007 1773.4 441.001 C 1769.86 441.091 1765.86 441.276 1762.54 439.872 C 1756.95 437.507 1755.16 431.761 1753.12 426.558 A 189.919 189.919 0 0 1 1754.6 418.114 C 1756.63 408.287 1762.74 402.486 1770.86 397.224 z"/>
<path transform="translate(0,0)" fill="rgb(47,34,36)" d="M 1617.65 347.316 C 1625.82 346.563 1635.44 349.12 1642.33 353.424 C 1647.37 356.573 1651.97 361.324 1653.01 367.385 C 1653.7 371.362 1652.64 376.521 1650.02 379.671 C 1642.59 388.624 1622.78 379.791 1612.37 381.74 C 1609.14 382.343 1606.51 383.686 1604.87 386.696 C 1604.49 387.409 1603.75 390.001 1603.78 390.661 C 1603.95 394.955 1637.2 412.216 1644.13 430.089 C 1647.79 439.538 1647.07 449.355 1642.85 458.491 C 1636.95 471.255 1624.96 483.657 1611.51 488.246 C 1595.18 493.821 1578.24 494.149 1562.71 485.957 C 1549.56 479.018 1542.11 468.925 1538.03 454.945 C 1526.51 465.158 1512.52 472.24 1497.19 474.32 A 54.4595 54.4595 0 0 1 1455.84 462.604 A 47.1564 47.1564 0 0 1 1437.92 430.007 C 1436.11 411.248 1443.33 396.496 1455.23 382.559 C 1464.48 373.106 1475.61 366.234 1488.52 363.062 C 1500.9 360.02 1515.13 361.44 1525.99 368.44 C 1535.4 374.498 1539.06 382.711 1541.38 393.165 C 1539.37 400.496 1537.63 407.318 1532.29 413.058 C 1517.64 428.829 1492.87 432.115 1472.54 433.204 L 1472.44 434.808 C 1473.74 436.401 1475.06 437.973 1476.76 439.155 C 1494.95 451.775 1512.47 429.467 1529.36 427.542 C 1534.4 426.968 1537.53 428.121 1541.46 431.179 C 1550.96 438.566 1551.41 432.389 1559.78 435.121 C 1567.73 437.716 1570.44 448.091 1574.02 454.859 C 1577.27 456.595 1580.63 458.13 1583.95 459.728 C 1593.83 458.818 1604.54 456.859 1611.28 448.849 C 1612.73 447.13 1613.75 444.966 1613.25 442.682 C 1611.09 432.717 1589.84 424.914 1581.99 419.218 C 1574.95 414.109 1569.76 407.091 1568.58 398.311 C 1567.16 387.803 1571.71 375.395 1578.29 367.142 C 1587.82 355.184 1602.9 349.222 1617.65 347.316 z"/>
<path transform="translate(0,0)" fill="rgb(254,254,254)" d="M 1503.12 393.45 C 1505.2 393.214 1506.07 393.031 1508.08 393.746 L 1507.9 394.874 C 1503.11 400.96 1488.9 402.806 1481.46 404.375 L 1478.38 404.573 L 1478.59 402.989 C 1485.97 396.592 1493.6 394.113 1503.12 393.45 z"/>
<path transform="translate(0,0)" fill="rgb(47,34,36)" d="M 1345.66 303.214 C 1349.03 303.538 1352.67 304.371 1355.93 305.254 C 1361.89 306.865 1367.66 310.351 1373.08 313.273 C 1392.8 323.907 1408.72 335.954 1419.79 355.98 C 1430.54 375.419 1433.67 398.87 1427.33 420.25 C 1418.25 450.882 1391.31 471.919 1364.35 486.448 C 1352.89 492.024 1341.07 496.696 1328.7 499.831 C 1319.59 502.139 1308.57 504.168 1300.15 498.776 C 1296.06 496.157 1293.98 492.023 1293.16 487.334 C 1292.49 483.502 1292.82 479.763 1293.35 475.939 C 1296.93 450.08 1303.59 424.1 1308.56 398.436 C 1313.45 373.174 1316.77 347.593 1322.98 322.588 C 1323.94 318.737 1324.86 315.203 1327.27 311.965 C 1331.89 305.764 1338.44 304.312 1345.66 303.214 z"/>
<path transform="translate(0,0)" fill="rgb(233,249,224)" d="M 1354.12 341.886 C 1366.24 347.61 1378 356.071 1385.66 367.234 C 1393.02 377.961 1396.6 390.775 1394.11 403.711 C 1390.15 424.284 1375.87 438.85 1359.16 450.145 C 1350.01 455.905 1340.48 460.117 1330.39 463.961 C 1339.24 423.421 1346.17 382.599 1354.12 341.886 z"/>
<path transform="translate(0,0)" fill="rgb(233,249,224)" d="M 0 0 L 2048 0 L 2048 136.591 L 2048 160.075 C 2027.38 153.515 2005.93 149.218 1984.79 144.724 A 1705.94 1705.94 0 0 0 1901.57 128.396 C 1713.14 95.7299 1520.85 86.2946 1332.97 128.492 C 1260.48 144.772 1189.44 166.696 1117.11 183.43 A 1287.16 1287.16 0 0 1 872.629 216.362 C 768.922 220.315 668.23 213.094 569.956 177.713 C 532.186 164.115 496.321 143.722 457.386 133.715 C 342.26 104.126 186.68 145.056 78.4047 188.387 C 51.6531 199.092 26.4982 213.301 0 224.419 L 0 207.27 L 0 0 z"/>
<path transform="translate(0,0)" fill="rgb(168,184,162)" d="M 0 207.27 A 192.5 192.5 0 0 1 3.26261 205.333 A 802.935 802.935 0 0 1 119.112 150.458 C 217.814 113.831 356.679 85.9318 460.465 111.895 C 500.15 121.823 536.134 141.913 574.403 155.868 C 648.569 182.914 710.159 190.986 788.475 193.444 C 812.625 194.202 836.735 194.979 860.89 194.033 A 1302.51 1302.51 0 0 0 1125.58 157.807 C 1184.51 143.707 1242.47 125.771 1301.52 111.932 A 1367.78 1367.78 0 0 1 1494.95 80.4227 C 1670.72 66.127 1877.64 91.8685 2048 136.591 L 2048 160.075 C 2027.38 153.515 2005.93 149.218 1984.79 144.724 A 1705.94 1705.94 0 0 0 1901.57 128.396 C 1713.14 95.7299 1520.85 86.2946 1332.97 128.492 C 1260.48 144.772 1189.44 166.696 1117.11 183.43 A 1287.16 1287.16 0 0 1 872.629 216.362 C 768.922 220.315 668.23 213.094 569.956 177.713 C 532.186 164.115 496.321 143.722 457.386 133.715 C 342.26 104.126 186.68 145.056 78.4047 188.387 C 51.6531 199.092 26.4982 213.301 0 224.419 L 0 207.27 z"/>
<path transform="translate(0,0)" fill="rgb(47,34,36)" d="M 280.491 651.413 C 302.824 649.209 327.94 657.856 346.989 668.973 C 381.945 689.373 407.058 734.003 414.965 772.77 C 417.196 783.711 414.909 795.608 417.725 806.389 C 425.796 809.295 434.117 811.516 442.359 813.884 C 473.065 789.524 511.651 769.149 550.272 761.904 C 620.313 748.764 706.042 754.95 766.184 796.131 C 775.753 792.939 784.763 787.815 793.681 783.152 C 807.505 786.814 834.156 802.343 842.12 814.576 C 843.912 817.328 844.935 820.129 844.092 823.427 C 842.976 827.798 835.033 831.259 831.325 833.393 C 857.415 841.048 885.849 846.512 908.263 862.724 C 947.493 891.099 966.031 937.309 973.179 983.779 C 979.715 1026.27 977.274 1080.8 950.725 1116.37 C 932.063 1141.37 907.091 1156.29 876.454 1160.89 C 874.411 1168.64 871.761 1175.97 874.925 1183.84 C 875.703 1185.77 877.104 1188.03 877.042 1190.17 C 876.765 1199.7 870.777 1203.13 866.561 1210.23 C 861.708 1218.4 891.339 1230.34 892.873 1240.22 C 894.284 1249.3 884.499 1262.54 879.095 1269.36 C 867.154 1284.42 853.072 1298.39 838.922 1311.38 C 787.343 1358.73 726.716 1389.74 656.397 1365.68 C 644.594 1361.64 616.039 1346.4 604.89 1348.84 C 599.582 1350.01 597.169 1354.77 594.237 1358.9 C 635.861 1399.84 658.122 1450.55 684.088 1501.68 C 699.37 1531.77 717.21 1559.9 734.908 1588.55 C 742.503 1600.85 749.295 1614.22 758.081 1625.67 C 768.487 1613.9 778.232 1601.35 785.809 1587.55 C 792.33 1575.67 797.586 1563.1 804.549 1551.46 C 827.133 1513.7 869.277 1502.29 909.412 1492.33 C 922.473 1480.53 935.051 1467.78 947.501 1455.33 C 950.321 1452.51 952.067 1451.19 955.918 1449.95 C 957.949 1449.29 959.363 1449.06 960.995 1447.59 C 962.979 1445.8 963.21 1419.07 967.159 1411.01 C 975.968 1393.04 993.927 1384.9 1004.32 1368.99 C 1013.02 1355.66 1013.99 1338.09 1021.74 1324.07 C 1026.32 1315.78 1030.41 1314.68 1039.05 1312.23 C 1049.23 1315.48 1053.29 1320.24 1059.69 1328.47 C 1066.12 1321.28 1071.19 1312.3 1076.69 1304.37 C 1087.18 1289.28 1097.95 1274.33 1107.98 1258.93 C 1115.89 1246.79 1122.42 1233.02 1133.81 1223.67 C 1139.72 1218.82 1175 1194.61 1180.21 1195.19 C 1181.42 1196.57 1181.79 1197.38 1182.15 1199.24 C 1184.44 1210.99 1173.79 1254.42 1167.82 1265.15 C 1161.95 1275.69 1153.08 1285.93 1146 1295.81 C 1133.97 1312.61 1122.46 1329.71 1110.59 1346.59 C 1118.17 1349.87 1125.52 1353.95 1130.35 1360.89 C 1138.62 1372.78 1135.11 1388.08 1132.52 1401.22 C 1132.73 1401.46 1132.95 1401.7 1133.16 1401.95 L 1134.2 1403.19 C 1138.04 1407.69 1141.2 1412.37 1143.37 1417.9 C 1148.73 1431.58 1141.12 1443.17 1140.69 1456.52 C 1140.23 1470.7 1145.67 1475.91 1138.94 1490.87 C 1126.19 1519.17 1072.61 1535.58 1044.82 1546.28 C 1047.32 1548.8 1049.3 1552 1051.36 1554.9 C 1045.64 1584.9 1033.52 1588.99 1016.16 1610.57 L 1015.28 1611.67 C 1018.25 1621.43 1018.71 1633.85 1019.35 1644.07 C 1020.12 1656.35 1019.99 1668.78 1016.13 1680.59 C 1003.38 1719.67 943.382 1747.14 914.968 1780 C 910.179 1785.54 903.941 1791.94 900.722 1798.49 C 920.96 1806.09 939.804 1820.66 955.702 1835.09 C 983.626 1860.45 1007.34 1892.4 1009.09 1931.08 C 1024.38 1929.61 1040.49 1931.02 1055.86 1931.45 C 1073.34 1904.14 1088.49 1874.76 1104.79 1846.66 C 1151.59 1766.04 1197.71 1684.03 1249.08 1606.25 C 1256.64 1594.8 1269.07 1571.83 1283.28 1568.93 C 1283.56 1568.84 1283.83 1568.75 1284.12 1568.66 C 1284.54 1568.54 1284.98 1568.43 1285.41 1568.3 C 1304.73 1562.49 1630.42 1616.82 1667.94 1625.2 C 1674.52 1626.67 1680.66 1628.6 1686.76 1631.47 C 1689.05 1634.23 1689.91 1636.54 1690.1 1640.09 C 1690.32 1644.49 1689.46 1648.77 1688.02 1652.9 C 1681.59 1671.38 1670.65 1689.59 1661.72 1707.07 C 1632.32 1764.56 1601.26 1820.22 1567.89 1875.51 C 1556.73 1893.99 1543.38 1919.32 1529.33 1935.26 C 1515.01 1940.76 1496.47 1941.22 1481.27 1942.92 C 1458.87 1945.43 1436.43 1947.69 1414.05 1950.4 A 11949.4 11949.4 0 0 1 1164.07 1979.24 L 1090.33 1986.98 C 1074.57 1988.68 1058.41 1991.24 1042.59 1991.68 C 1022.61 1992.25 1001.95 1990.44 981.981 1989.47 A 6415.66 6415.66 0 0 1 862.108 1982.88 L 763.148 1977.69 C 741.403 1976.68 719.272 1976.54 697.64 1973.95 C 688.259 1972.82 679.868 1970.74 671.01 1967.46 A 75.4434 75.4434 0 0 1 668.155 1970.28 C 659.559 1978.46 644.8 1985.85 632.919 1986.87 C 616.967 1988.24 597.99 1982.23 582.255 1979.11 C 555.482 1973.79 512.142 1964.91 485.112 1964.55 C 481.369 1966.81 477.611 1969.05 473.651 1970.91 C 451.044 1981.53 423.27 1984.91 398.547 1987.71 C 279.851 2001.15 154.353 1981.07 42.7091 1939.78 C 35.8495 1937.24 24.8899 1933.52 22.1015 1926.12 C 19.2574 1918.57 23.6046 1895.63 24.4184 1886.37 C 33.3141 1785.14 54.2254 1685.82 95.5045 1592.53 C 114.505 1549.58 138.571 1508.86 164.958 1470.07 C 202.902 1414.29 288.808 1307.36 352.902 1283.12 C 379.775 1272.95 411.029 1269.18 439.087 1276.55 C 443.298 1277.66 446.995 1279.78 451.033 1281.06 C 451.862 1281.32 452.476 1281.59 453.285 1282.04 L 467.537 1281.46 C 467.858 1281.09 468.176 1280.71 468.502 1280.34 C 477.041 1270.59 483.134 1256.29 489.457 1244.87 C 460.449 1259.12 427.515 1265.85 395.355 1267.96 C 393.732 1267.08 392.09 1266.21 390.508 1265.25 C 387.687 1263.55 385.98 1262.39 385.181 1259.14 C 388.417 1247.39 410.977 1234.91 420.258 1226.78 C 389.228 1230.23 361.533 1225.54 333.381 1212.41 C 328.437 1210.11 324.105 1207.96 322.177 1202.57 C 322.206 1199.37 322.802 1197.59 325.361 1195.52 C 332.928 1189.39 379.981 1186.46 386.851 1178.43 C 375.781 1164.11 361.178 1158.14 350.201 1139.83 C 325.484 1098.59 317.601 1040.59 327.409 993.697 C 331.22 975.479 338.037 958.35 342.522 940.419 C 339.803 934.32 337.888 935.496 332.029 937.648 C 295.518 951.059 257.855 963.138 219.618 948.155 C 199.806 940.393 182.806 926.918 174.312 907.016 C 166.774 889.355 166.562 866.29 173.846 848.501 C 182.213 828.066 199.634 812.105 219.794 803.545 C 223.937 801.785 228.373 801.504 232.583 799.71 C 230.044 795.025 223.901 791.285 220.01 787.522 C 207.612 775.534 200.477 755.678 198.885 738.831 C 196.896 717.776 203.495 697.56 217.126 681.435 C 233.441 662.135 255.772 653.529 280.491 651.413 z"/>
<path transform="translate(0,0)" fill="rgb(233,249,224)" d="M 846.82 1158.63 C 851.74 1159.18 856.694 1160.53 861.583 1161.42 L 859.751 1176.99 C 853.752 1175.58 848.768 1173.5 843.348 1170.67 L 846.82 1158.63 z"/>
<path transform="translate(0,0)" fill="rgb(254,254,254)" d="M 816.769 1059.26 C 821.066 1059.01 824.933 1058.64 828.776 1060.91 C 830.239 1065.46 830.367 1070.22 830.738 1074.96 L 830.037 1075.77 L 824.511 1073.11 C 817.847 1069.31 810.444 1066.47 803.414 1063.38 C 807.843 1061.7 812.188 1060.42 816.769 1059.26 z"/>
<path transform="translate(0,0)" fill="rgb(233,249,224)" d="M 828.999 1016.09 C 831.423 1021.05 828.675 1038.84 828.098 1044.7 C 818.001 1044.37 808.599 1045.92 798.684 1047.66 L 797.289 1047.66 L 796.938 1046.63 C 798.193 1045.85 799.431 1045.03 800.69 1044.26 C 810.762 1038.05 822.49 1026.06 828.999 1016.09 z"/>
<path transform="translate(0,0)" fill="rgb(210,194,120)" d="M 1149.67 1226.86 C 1153.98 1230.48 1159.02 1232.92 1163.96 1235.58 C 1163.38 1241.6 1163.33 1247.53 1159.4 1252.45 C 1156.4 1253.88 1156.09 1253.74 1152.78 1253.19 C 1144.55 1250.92 1139.6 1248.09 1133.3 1242.37 C 1138.19 1236.71 1144.1 1231.85 1149.67 1226.86 z"/>
<path transform="translate(0,0)" fill="rgb(168,184,162)" d="M 617.061 1094.17 A 544.159 544.159 0 0 0 654.123 1109.87 C 649.03 1114.68 643.167 1118.57 637.464 1122.61 C 630.254 1127.16 622.67 1131.26 615.295 1135.55 C 618.054 1121.39 618.676 1108.51 617.061 1094.17 z"/>
<path transform="translate(0,0)" fill="rgb(254,254,254)" d="M 733.229 1052.93 C 735.929 1054.31 738.478 1055.57 740.83 1057.52 C 742.715 1059.97 745.218 1061.5 747.732 1063.23 C 743.038 1074.78 739.74 1087.28 735.972 1099.18 C 726.836 1095.98 718.33 1090.14 708.851 1088.21 C 718.087 1076.88 725.751 1065.45 733.229 1052.93 z"/>
<path transform="translate(0,0)" fill="rgb(254,254,254)" d="M 532.997 1183.11 C 537.234 1182.79 541.487 1182.98 545.732 1183.06 C 548.08 1185.37 550.574 1187.71 552.562 1190.35 C 556.333 1195.35 559.236 1202.32 558.057 1208.67 C 556.884 1214.98 552.471 1219.3 547.48 1222.92 C 545.831 1223.14 544.154 1223.35 542.488 1223.36 C 536.886 1223.37 531.015 1220.46 527.379 1216.25 C 523.49 1211.75 521.81 1205.66 522.488 1199.78 C 523.367 1192.16 527.109 1187.61 532.997 1183.11 z"/>
<path transform="translate(0,0)" fill="rgb(254,254,254)" d="M 902.354 1892.99 C 902.699 1893.11 903.054 1893.2 903.387 1893.35 C 910.352 1896.43 925.463 1912.07 927.352 1919.13 C 928.046 1921.72 927.81 1922.05 926.49 1924.16 C 917.537 1928.42 899.655 1923.5 889.547 1923.12 L 888.248 1923.08 C 876.23 1922.94 864.206 1921.98 852.15 1921.88 C 869.588 1914.76 886.09 1902.58 902.354 1892.99 z"/>
<path transform="translate(0,0)" fill="rgb(168,184,162)" d="M 558.71 1477.84 C 562.184 1482.14 569.276 1518.49 571.662 1526.59 C 562.016 1537.28 552.504 1548.16 542.295 1558.31 C 537.725 1554.31 533.752 1548.76 529.789 1544.12 C 541.483 1523.81 549.229 1499.38 558.71 1477.84 z"/>
<path transform="translate(0,0)" fill="rgb(168,184,162)" d="M 409.03 821.011 C 415.786 822.518 423.623 821.616 429.806 825.115 C 429.678 827.256 414.376 839.344 411.711 842.044 C 390.559 863.48 374.225 886.552 359.048 912.456 C 356.215 917.434 353.137 922.26 350.089 927.108 C 352.511 913.359 355.5 899.273 360.162 886.102 C 368.743 861.864 384.789 832.637 409.03 821.011 z"/>
<path transform="translate(0,0)" fill="rgb(254,254,254)" d="M 1101.55 1361.36 C 1102.2 1361.24 1102.84 1361.08 1103.5 1361 C 1109.05 1360.34 1114.65 1364.42 1118.81 1367.46 C 1121.22 1373.36 1124.01 1383.09 1120.7 1389.08 C 1120.53 1389.4 1119.01 1391.42 1118.48 1391.69 C 1113.97 1393.94 1105.07 1394.28 1099.9 1395.68 C 1086.12 1399.42 1072.32 1404.41 1059.18 1409.96 C 1054.78 1411.94 1046.94 1416.68 1042.33 1415.47 C 1041.64 1414.35 1041.47 1414.18 1040.99 1412.79 C 1039.33 1407.97 1041.46 1402.22 1043.93 1398.1 C 1056.09 1377.79 1079.76 1367.16 1101.55 1361.36 z"/>
<path transform="translate(0,0)" fill="rgb(168,184,162)" d="M 579.44 1385.89 C 598.481 1409.46 602.442 1426.19 604.688 1455.63 C 605.476 1465.96 606.417 1476.63 606.264 1486.99 C 599.548 1496.71 590.617 1504.85 582.941 1513.82 C 578.508 1495.87 574.981 1476.94 569.077 1459.44 C 574.757 1443.29 582.447 1427.48 589.145 1411.71 C 586.218 1406.76 581.529 1402.54 578.88 1397.81 C 578.957 1397.74 579.048 1397.68 579.111 1397.59 C 581.703 1394.13 580.185 1389.89 579.44 1385.89 z"/>
<path transform="translate(0,0)" fill="rgb(210,194,120)" d="M 1126.36 1254.53 C 1134.32 1260.86 1140.77 1264.55 1151.03 1265.4 C 1131.64 1293.53 1110.01 1320.23 1091.36 1348.84 C 1088.08 1350.4 1084.65 1351.65 1081.28 1353 C 1075.13 1354.76 1069.38 1357.64 1063.58 1360.3 L 1065.36 1344.83 C 1087.2 1316.3 1108.89 1285.95 1126.36 1254.53 z"/>
<path transform="translate(0,0)" fill="rgb(254,254,254)" d="M 729.932 1244.67 C 733.152 1245.29 738.199 1245.74 740.9 1247.63 C 756.571 1258.58 770.041 1281.7 782.42 1296.59 C 787.626 1302.85 793.855 1308.12 799.292 1314.18 C 801.43 1316.56 803.987 1319.3 803.78 1322.7 C 796.446 1330.51 784.888 1336.22 775.697 1341.79 C 763.949 1348.5 751.395 1353.15 738.296 1356.37 C 734.301 1348.14 728.129 1341.18 724.007 1333.03 C 714.633 1314.5 713.114 1286.61 717.257 1266.5 C 719.072 1257.68 722.273 1249.79 729.932 1244.67 z"/>
<path transform="translate(0,0)" fill="rgb(168,184,162)" d="M 725.637 1806.14 C 739.218 1809.69 753.439 1812.14 765.77 1819.12 C 758.282 1829.25 751.112 1839.97 745.359 1851.19 C 731.092 1879.03 714.579 1927.58 714.689 1958.71 L 713.805 1960.27 C 707.522 1962.6 689.196 1959.33 681.451 1958.58 C 673.974 1905.89 697.244 1849.3 725.637 1806.14 z"/>
<path transform="translate(0,0)" fill="rgb(168,184,162)" d="M 960.462 1463.79 C 962.382 1464.13 961.574 1463.7 962.914 1465.02 C 961.392 1467.88 959.485 1470.16 957.402 1472.62 C 959.499 1494.52 967.413 1517.1 980.486 1534.91 C 994.57 1554.09 1011.37 1564.43 1034.77 1567.92 C 1032.88 1571.07 1030.99 1574.25 1028.77 1577.18 C 1023.24 1584.52 1003.57 1607.12 994.772 1608.3 C 987.267 1606.17 980.539 1603.71 973.723 1599.88 C 937.937 1579.74 923.755 1545.78 913.146 1508.13 C 930.001 1495.28 941.899 1474.3 960.462 1463.79 z"/>
<path transform="translate(0,0)" fill="rgb(168,184,162)" d="M 733.814 1928 C 748.497 1932.32 791.109 1931.97 809.214 1933.07 C 889.6 1937.96 969.929 1943.95 1050.47 1945.29 C 1045.73 1952.32 1041.48 1959.7 1037.11 1966.97 L 1031.69 1977.38 C 972.586 1976.18 913.303 1971.61 854.26 1968.55 L 777.579 1964.52 C 760.386 1963.76 743.009 1963.71 725.885 1962.1 C 729.637 1951.36 731.253 1939.16 733.814 1928 z"/>
<path transform="translate(0,0)" fill="rgb(168,184,162)" d="M 472.027 1301.51 C 488.828 1311.9 532.216 1366.23 548.114 1384.54 C 556.385 1394.06 565.794 1403.08 573.333 1413.13 A 2566.59 2566.59 0 0 1 533.654 1499.7 C 529.032 1510.44 525.068 1521.45 521.005 1532.41 C 512.755 1523.13 490.461 1498.34 486.933 1488.03 C 484.261 1480.23 486.937 1468.14 487.582 1459.89 C 490.445 1423.31 496.711 1366.57 486.513 1332.43 C 483.184 1321.28 477.746 1311.54 472.027 1301.51 z"/>
<path transform="translate(0,0)" fill="rgb(254,254,254)" d="M 796.071 797.95 C 805.516 799.393 821.602 813.264 829.073 819.27 C 817.679 828.89 801.403 834.298 788.514 841.926 A 624.429 624.429 0 0 0 706.165 899.259 A 795.628 795.628 0 0 0 621.6 979.457 C 609.008 993.28 596.546 1012.32 582.714 1024.16 C 582.314 1024.5 581.905 1024.83 581.501 1025.17 C 569.629 1018.19 558.492 1011.65 544.551 1010.34 C 589.513 940.648 716.738 826.38 796.071 797.95 z"/>
<path transform="translate(0,0)" fill="rgb(233,249,224)" d="M 761.52 1070.46 C 762.838 1070.73 763.992 1070.84 765.34 1070.79 C 797.013 1069.62 826.626 1088.77 851.959 1105.85 C 836.499 1144.89 823.734 1185.11 809.614 1224.67 C 809.315 1225.05 809.084 1225.5 808.719 1225.83 C 806.847 1227.5 804.308 1227.17 802.032 1226.79 C 786.218 1224.17 731.646 1202.32 722.768 1189.57 C 721.713 1182.45 755.299 1085.06 761.52 1070.46 z"/>
<path transform="translate(0,0)" fill="rgb(254,254,254)" d="M 1035.87 1326.81 C 1038.15 1326.97 1040.99 1327.01 1042.97 1328.27 C 1048.14 1331.57 1049.6 1338.98 1050.63 1344.63 C 1054.05 1363.25 1044.39 1374.51 1034.93 1388.86 C 1030.81 1395.12 1024.5 1406.05 1027.5 1413.76 C 1029.11 1417.89 1031.24 1421.09 1032.14 1425.56 L 1030.14 1426.1 L 1031.55 1426.29 C 1028.17 1431.13 1025.66 1437.72 1024.94 1443.57 L 1023.91 1451.38 C 1026.06 1456.46 1031.56 1462.01 1032.99 1466.18 C 1035.15 1472.47 1029.65 1483.13 1030.61 1490.41 C 1031.03 1493.61 1032.5 1496.28 1035.19 1498.12 C 1045.43 1505.12 1068.53 1499.63 1079.67 1497.19 C 1091.81 1494.54 1114.94 1490.34 1122.18 1479.1 C 1122.15 1477.68 1122.55 1477.08 1121.31 1476.11 C 1118.86 1474.17 1114.66 1474 1111.68 1474.47 C 1106.83 1475.23 1101.89 1477.47 1097.21 1478.93 C 1083.25 1483.3 1067.96 1488.51 1053.3 1489.02 C 1049.1 1489.17 1045.99 1489.02 1042.78 1485.98 C 1042.31 1484.63 1041.87 1483.43 1042.17 1481.97 C 1046.51 1460.71 1079.71 1450.17 1097.47 1444.75 C 1102.91 1443.09 1110.69 1441.96 1115.32 1438.84 C 1117.74 1437.21 1119.33 1434.87 1120.11 1432.1 C 1119.5 1430.73 1119.68 1430.21 1118.12 1429.66 C 1103.13 1424.34 1061.07 1445.8 1046.93 1452.99 C 1044.17 1454.39 1042.8 1455.35 1039.79 1454.38 C 1039.12 1453.4 1038.91 1453.22 1038.5 1451.93 C 1036.95 1447.02 1037.82 1442.32 1040.17 1437.93 C 1040.32 1437.65 1040.48 1437.37 1040.63 1437.09 C 1056.32 1418.76 1094.76 1410.55 1117.28 1402.77 C 1122.63 1415.54 1129.27 1417.59 1132.28 1433.13 C 1130.74 1439.68 1126.71 1446.12 1126.01 1452.77 C 1125.25 1459.94 1129.07 1467.93 1128.84 1475.4 C 1127.91 1504.99 1064.11 1526.62 1039.84 1533.84 C 1027.55 1537.49 1017.68 1534.72 1007.58 1544.55 C 990.609 1530.46 980.652 1510.06 973.134 1489.73 C 974.884 1485.62 977.149 1481.69 979.245 1477.74 C 978.271 1444.45 965.712 1423.99 994.154 1396.92 C 1001.33 1390.09 1010.35 1384.37 1015.78 1375.98 C 1025.25 1361.37 1027.32 1342.29 1035.87 1326.81 z"/>
<path transform="translate(0,0)" fill="rgb(254,254,254)" d="M 888.512 1809.21 C 892.365 1808.78 894.372 1809.55 897.741 1811.42 C 934.433 1831.85 980.563 1868.87 992.018 1910.83 C 993.322 1915.6 995.607 1923.56 993.108 1927.89 C 987.941 1928.98 982.442 1928.2 977.202 1927.87 C 974.568 1903.73 967.951 1888.38 950.578 1871 C 945.964 1866.39 935.233 1855.9 928.303 1856.97 C 925.663 1857.37 924.808 1858.79 923.227 1860.68 C 923.43 1867.61 940.054 1879.52 945.101 1885.01 C 956.392 1897.28 963.097 1910.02 962.294 1927.03 C 955.959 1927.05 949.605 1926.62 943.277 1926.32 C 942.282 1918.69 939.676 1913.6 935.695 1907.19 C 928.91 1896.61 917.296 1883.62 904.722 1880.43 C 902.092 1879.76 899.335 1879.42 896.704 1880.25 C 888.172 1882.93 872.436 1895.31 864.334 1900.5 C 853.947 1907.16 843.343 1913.52 832.812 1919.95 C 814.264 1920.52 795.733 1919.02 777.232 1917.89 C 763.631 1917.07 750.085 1916.76 736.579 1914.82 C 743.443 1886.57 754.215 1861.69 768.507 1836.45 C 784.313 1831.71 801.595 1829.37 817.797 1825.82 C 841.455 1820.65 864.883 1814.51 888.512 1809.21 z"/>
<path transform="translate(0,0)" fill="rgb(254,254,254)" d="M 522.949 1021.38 C 530.962 1021.74 538.779 1022.11 546.573 1024.16 C 567.896 1029.78 583.013 1043.64 593.731 1062.46 C 605.599 1083.31 609.869 1104.8 603.145 1128.17 C 596.698 1150.57 584.347 1171.84 563.386 1183.29 C 557.772 1176.2 550.729 1171.34 541.584 1170.16 C 533.132 1169.07 527.015 1171.42 520.569 1176.65 C 516.366 1181.15 513.369 1185.55 510.438 1190.91 C 493.568 1187.75 478.774 1183.88 465.371 1172.61 C 447.736 1157.78 438.485 1137.23 436.723 1114.45 C 434.943 1091.45 443.689 1067.08 458.832 1049.8 C 475.308 1031 498.474 1022.83 522.949 1021.38 z"/>
<path transform="translate(0,0)" fill="rgb(47,34,36)" d="M 516.586 1058.39 C 527.808 1057.58 540.358 1061.01 549.162 1068.01 C 558.87 1075.74 565.124 1087.84 566.343 1100.14 C 567.732 1114.15 563.094 1130.28 553.959 1140.96 C 545.924 1150.36 535.893 1154.6 523.779 1155.44 C 512.373 1155.27 502.327 1153.45 492.895 1146.54 C 482.076 1138.61 473.819 1125.84 472.2 1112.46 A 50.1479 50.1479 0 0 1 483.059 1074.93 C 491.868 1064.01 503.07 1059.75 516.586 1058.39 z"/>
<path transform="translate(0,0)" fill="rgb(254,254,254)" d="M 515.614 1071.4 C 522.239 1071.13 528.436 1071.93 534.386 1075.04 A 33.9771 33.9771 0 0 1 551.041 1095.34 C 554.121 1105.38 552.528 1116.45 547.466 1125.58 C 542.345 1134.82 535.189 1139.37 525.305 1142.31 C 517.329 1142 510.377 1141.58 503.325 1137.33 C 494.621 1132.08 488.308 1122.82 486.337 1112.88 C 484.512 1103.67 486.215 1093.21 491.603 1085.44 C 497.514 1076.91 505.769 1073.38 515.614 1071.4 z"/>
<path transform="translate(0,0)" fill="rgb(106,107,106)" d="M 280.083 666.38 C 307.718 665.13 334.261 675.266 354.808 693.728 C 387.898 723.461 401.56 765.011 403.942 808.123 C 399.117 811.335 394.275 814.551 389.719 818.14 C 358.901 842.417 343.242 881.012 338.627 919.096 C 314.323 930.965 284.601 940.398 257.501 940.647 C 234.437 940.859 215.642 934.619 199.158 918.269 A 63.3995 63.3995 0 0 1 184.482 889.53 C 181.31 874.378 184.225 856.348 192.965 843.504 C 216.199 809.361 264.393 806.551 301.244 814.087 C 311.052 816.093 322.919 822.779 332.755 820.885 C 334.998 819.175 335.103 818.977 335.989 816.294 C 335.475 813.549 335.141 812.178 333.002 810.265 C 324.346 802.522 295.184 797.48 283.439 796.586 C 275.719 795.998 265.706 797.418 258.385 795.348 C 251.043 793.272 243.465 788.467 237.548 783.692 C 223.821 772.615 215.285 754.507 213.463 737.058 A 60.086 60.086 0 0 1 226.886 692.845 C 240.526 676.181 259.048 668.487 280.083 666.38 z"/>
<path transform="translate(0,0)" fill="rgb(254,254,254)" d="M 669.991 1115.78 C 687.869 1123.16 705.517 1130.43 723.928 1136.45 C 718.59 1154.72 710.201 1172.9 707.217 1191.78 C 714.883 1206.22 727.058 1212.18 741.38 1219 C 756.459 1226.18 797.327 1245.76 812.552 1239.61 C 822.724 1235.5 827.098 1220.25 831.113 1210.89 C 839.625 1213.95 872.426 1235.98 878.772 1242.66 C 867.549 1271.32 837.73 1292.99 816.273 1313.98 C 808.662 1305.48 800.562 1297.35 793.337 1288.52 C 781.692 1274.29 765.754 1250.48 751.892 1239.68 C 747.215 1236.03 741.127 1233.45 735.198 1232.93 C 729.152 1232.39 723.486 1234.07 718.834 1238 C 708.383 1246.83 704.254 1263.64 702.9 1276.74 C 699.885 1305.88 706.733 1335.97 725.405 1358.72 C 675.678 1371.53 620.469 1326.95 597.027 1336.22 C 584.386 1341.22 576.254 1364.3 571.755 1375.89 C 574.066 1379.42 576.783 1382.62 579.44 1385.89 C 580.185 1389.89 581.703 1394.13 579.111 1397.59 C 579.048 1397.68 578.957 1397.74 578.88 1397.81 A 1116.75 1116.75 0 0 0 479.444 1290.39 C 485.921 1280.09 492.302 1269.69 497.702 1258.78 C 501.46 1251.19 504.68 1240.85 509.598 1234.14 C 511.645 1231.35 514.63 1228.91 517.195 1226.6 C 521.869 1229.76 526.387 1233.13 530.926 1236.47 C 535.477 1236.88 540.747 1237.76 545.26 1236.94 A 32.9053 32.9053 0 0 0 566.555 1223.15 C 572.541 1214.27 572.349 1205.35 570.324 1195.35 C 585.278 1186.76 593.543 1176.7 603.091 1162.61 C 605.06 1159.71 607.786 1154.56 610.528 1152.43 C 614.4 1149.42 623.213 1148.27 628.017 1145.91 C 642.457 1138.82 657.893 1126.48 669.991 1115.78 z"/>
<path transform="translate(0,0)" fill="rgb(106,107,106)" d="M 815.172 844.148 C 827.736 845.852 839.873 849.355 851.995 852.974 C 884.546 862.694 905.964 872.702 927.269 900.437 C 959.394 942.258 966.411 1006.54 959.369 1057.51 C 955.367 1086.48 941.561 1112.38 917.861 1129.97 C 898.238 1144.53 875.904 1149.95 851.706 1147.32 C 856.009 1136.68 865.114 1119.23 867.23 1109.04 C 867.619 1107.17 867.239 1105.12 866.461 1103.4 C 862 1093.51 849.578 1088.03 842.658 1080.13 A 534.997 534.997 0 0 1 841.647 1064.34 L 842.934 1065.08 C 849.444 1068.87 855.577 1073.71 859.918 1079.95 C 861.585 1082.34 862.784 1085.46 864.637 1087.66 C 866.415 1089.77 867.531 1089.74 870.045 1090.03 C 872.124 1088.76 873.694 1087.78 874.341 1085.24 C 875.812 1079.47 872.522 1073.06 869.373 1068.44 C 861.774 1057.3 852.319 1051.41 840.332 1045.71 C 841.841 1030.89 847.811 990.059 844.134 978.142 C 842.23 976.556 841.476 976.44 838.841 976.831 C 836.229 977.218 834.337 980.682 833.215 982.773 C 830.446 987.93 828.375 993.457 825.391 998.51 C 815.711 1014.9 801.988 1028.58 787.02 1040.11 C 775.995 1031.64 763.136 1024.58 748.625 1026.39 C 745.527 1026.78 742.968 1027.92 741.184 1030.6 C 740.203 1032.08 740.606 1032.73 740.746 1034.4 C 746.096 1041.27 765.402 1043.16 774.931 1048.63 C 771.494 1050.12 767.812 1051.95 764.154 1052.78 C 756.82 1054.46 747.051 1052.93 740.83 1057.52 C 738.478 1055.57 735.929 1054.31 733.229 1052.93 C 734.08 1044.82 738.562 1035.94 740.691 1027.9 C 744.748 1012.57 747.358 997.241 749.474 981.538 C 747.918 977.573 746.902 974.817 743.61 972.022 C 741.049 971.273 740.465 970.848 738.065 972.451 C 736.041 973.803 734.475 976.949 733.931 979.251 C 732.573 984.987 732.74 991.176 731.744 997.008 C 728.986 1013.16 724.016 1035.14 717.434 1050.1 A 94.631 94.631 0 0 1 693.732 1082.77 C 665.078 1071.56 636.312 1058.56 606.391 1051.2 C 602.004 1045.91 597.728 1040.1 592.838 1035.29 C 604.746 1020.84 616.377 1005.97 628.845 992.004 A 738.9 738.9 0 0 1 765.593 872.412 C 780.6 862.315 798.132 850.367 815.172 844.148 z"/>
<path transform="translate(0,0)" fill="rgb(106,107,106)" d="M 598.765 770.589 C 655.385 765.037 703.838 778.961 754.505 802.78 C 691.089 840.107 619.549 897.116 571.055 952.837 C 555.742 970.432 542.846 989.664 528.479 1007.97 C 512.892 1007.62 498.903 1009.8 484.313 1015.46 C 461.369 1024.35 441.252 1042.51 431.453 1065.27 C 420.758 1090.12 419.035 1120.02 429.333 1145.29 C 439.571 1170.4 458.964 1192.05 485.524 1199.82 C 492.849 1201.96 501.967 1201.78 508.699 1204.62 C 509.353 1206.96 509.578 1208.64 508.78 1211 C 504.611 1223.33 480.172 1233.58 469.255 1238.5 A 226.113 226.113 0 0 1 413.116 1251.95 C 419.379 1246.29 425.779 1240.53 431.593 1234.41 C 436.546 1229.2 443.323 1221.84 443.151 1214.33 C 441.538 1211.59 440.421 1210.67 437.043 1210.3 C 431.398 1209.67 423.185 1212.8 417.24 1213.49 C 392.015 1216.4 370.122 1213.03 346.489 1203.9 C 363.277 1200.37 388.186 1197.34 402.397 1187.57 C 405.471 1185.45 407.51 1182.37 409.608 1179.35 C 400.981 1169.48 390.131 1161.88 380.71 1152.81 C 354.037 1127.13 341.754 1091.24 339.03 1054.87 C 333.728 984.089 361.94 920.124 407.441 867.222 C 440.253 829.074 486.674 793.93 535.648 780.054 C 556.497 774.147 577.288 772.192 598.765 770.589 z"/>
<path transform="translate(0,0)" fill="rgb(233,249,224)" d="M 586.706 1371.75 C 591.183 1373.28 596.518 1380.58 599.572 1384.18 C 621.09 1409.52 638.937 1439.69 653.76 1469.31 C 660.66 1483.11 666.766 1497.28 673.897 1510.96 C 682.524 1527.51 691.83 1543.77 700.975 1560.04 C 715.644 1586.14 732.62 1610.85 747.36 1636.97 C 737.939 1650.67 725.214 1661.6 717.001 1676.34 C 709.834 1689.21 699.234 1721.43 703.305 1736.03 C 705.163 1738.21 705.056 1737.98 707.941 1738.21 C 709.928 1737.28 711.138 1736.37 712.116 1734.33 C 718.159 1721.77 719.487 1702.67 726.113 1687.84 C 734.835 1668.33 750.154 1654.86 764.073 1639.28 C 771.652 1630.79 778.774 1621.65 785.548 1612.51 C 799.997 1593.01 807.386 1569.68 821.939 1550.45 C 839.002 1527.9 874.338 1512.01 901.811 1508.12 C 901.933 1512.49 902.194 1516.75 903.028 1521.06 C 909.415 1554.03 930.706 1587.77 958.711 1606.57 C 971.811 1615.36 987.198 1623.93 1003.37 1620.79 C 1003.63 1622.14 1003.88 1623.47 1004.09 1624.82 C 1006.48 1640.66 1009.18 1658.78 1004.29 1674.37 C 994.065 1706.97 949.786 1729.49 925.002 1751.46 C 910.338 1764.46 896.876 1779.74 885.337 1795.55 C 875.293 1799.81 863.517 1801.67 852.877 1804.21 L 792.609 1818.49 L 780.407 1821.54 C 779.602 1819.18 782.543 1816.9 780.922 1813.98 C 773.781 1801.14 737.474 1795.15 723.247 1791.69 C 715.508 1780.65 706.571 1769.9 696.701 1760.71 C 672.679 1738.35 649.842 1741.12 619.179 1742.1 C 625.969 1736.36 631.074 1729.06 635.638 1721.49 C 656.712 1686.5 657.054 1654.39 647.301 1615.32 C 644.446 1603.88 624.501 1540.47 618.016 1537.31 C 615.368 1536.01 613.713 1536.14 611.023 1536.99 C 609.032 1540.32 609.477 1543.56 610.315 1547.17 C 612.094 1554.85 615.641 1562.52 618.263 1569.99 C 628.046 1597.87 639.056 1626.09 640.276 1655.98 C 641.785 1692.96 622.632 1718.51 598.869 1744.47 C 591.525 1744.78 536.45 1749.84 534.757 1749 C 532.595 1747.94 530.106 1743.24 527.795 1741.52 C 518.179 1734.33 504.863 1733.43 493.322 1731.89 C 477.426 1687.91 479.663 1612.28 480.966 1565.35 C 481.493 1546.33 481.515 1527.01 484.149 1508.15 C 492.365 1517.91 499.587 1528.73 507.506 1538.76 C 514.605 1547.75 531.423 1571.89 542.518 1573.21 C 546.533 1571.58 549.862 1568.46 552.941 1565.47 C 562.665 1556.02 571.063 1545.14 580.287 1535.2 C 591.539 1523.06 604.002 1511.42 614.388 1498.59 C 617.167 1495.15 619.221 1491.47 621.238 1487.57 L 620.837 1484.97 C 618.737 1471.71 619.053 1458.32 618.253 1444.95 C 616.258 1411.61 602.546 1398.44 586.706 1371.75 z"/>
<path transform="translate(0,0)" fill="rgb(168,184,162)" d="M 1293 1580.34 C 1294.77 1580.84 1294.14 1580.77 1295.74 1580.87 C 1324.29 1582.65 1353.12 1587.45 1381.42 1591.61 C 1431.58 1599 1481.36 1607.35 1531.33 1615.85 A 5005.36 5005.36 0 0 1 1626.77 1632.44 C 1643.72 1635.42 1661.17 1637.3 1677.82 1641.65 C 1668.82 1664.78 1656.76 1687.14 1645.36 1709.18 C 1625.41 1747.77 1604.68 1785.54 1582.9 1823.11 A 1370.78 1370.78 0 0 1 1539.94 1893.84 C 1533.49 1903.93 1527.31 1914.53 1520.01 1924.01 C 1478.52 1929.55 1436.74 1933.86 1395.15 1938.71 C 1360.49 1944.16 1325.31 1947.18 1290.47 1951.35 A 13426.3 13426.3 0 0 1 1046.58 1978.05 C 1063.27 1950.09 1078.11 1920.88 1094.25 1892.57 A 6862.73 6862.73 0 0 1 1215.28 1686.96 C 1233.41 1657.4 1249.75 1626.64 1270.48 1598.75 C 1276.89 1590.14 1281.75 1582.02 1293 1580.34 z"/>
<path transform="translate(0,0)" fill="rgb(47,34,36)" d="M 1303.66 1603.76 C 1305.1 1604.18 1307.19 1604.6 1308.45 1605.4 C 1310.42 1606.66 1311.03 1608.1 1311.15 1610.38 C 1311.3 1613.16 1309.43 1616.97 1308.16 1619.36 C 1302.7 1629.67 1294.87 1639.68 1288.76 1649.74 L 1226.41 1751.63 L 1143.24 1891.65 C 1134.49 1906.5 1113.94 1947.77 1103.08 1957.64 C 1099.64 1957.13 1098.34 1956.97 1095.97 1954.47 C 1095.18 1952.12 1094.9 1950.44 1095.56 1947.99 C 1098.33 1937.76 1124.36 1897.68 1131.18 1886 A 10135.4 10135.4 0 0 1 1219.32 1737.32 C 1244.22 1695.68 1269.07 1653.69 1295.48 1612.98 C 1297.86 1609.3 1299.85 1606.14 1303.66 1603.76 z"/>
<path transform="translate(0,0)" fill="rgb(47,34,36)" d="M 1444.6 1737.26 C 1454.86 1736.21 1464.76 1736.55 1473.85 1742.18 C 1480.1 1746.05 1484.16 1752.07 1485.84 1759.19 C 1488.6 1770.91 1485.18 1782.91 1479.15 1793.02 C 1465.57 1815.81 1443.86 1828.11 1418.82 1834.56 C 1409.1 1836.03 1397.24 1834.91 1388.81 1829.61 C 1382.14 1825.41 1378.24 1818.81 1376.8 1811.14 C 1374.16 1797.16 1379.51 1783.66 1387.43 1772.38 C 1401.12 1752.88 1421.42 1741.37 1444.6 1737.26 z"/>
<path transform="translate(0,0)" fill="rgb(254,254,254)" d="M 1449.8 1749.38 C 1455.51 1749.37 1464.36 1750.52 1468.86 1754.36 C 1471.88 1756.93 1473.43 1760.1 1473.92 1764.03 C 1475.26 1774.91 1469.16 1785.97 1462.61 1794.25 A 76.6233 76.6233 0 0 1 1412.24 1822.43 C 1411.11 1822.87 1411.56 1822.82 1410.26 1822.73 C 1401.23 1822.12 1396.24 1818.33 1390.37 1811.87 L 1390.21 1810.87 C 1388.25 1798.31 1391.78 1787.84 1399.35 1777.69 C 1411.62 1761.24 1429.88 1752.31 1449.8 1749.38 z"/>
<path transform="translate(0,0)" fill="rgb(233,249,224)" d="M 405.69 1285.51 C 416.98 1283.82 436.161 1288.05 445.629 1293.83 C 465.972 1306.24 474.221 1332.52 477.072 1354.84 C 481.021 1385.74 475.178 1437.01 472.457 1469.19 C 465.624 1550 458.936 1655.52 477.758 1733.67 C 469.562 1734.49 461.46 1735.42 453.42 1737.26 C 431.619 1742.24 361.006 1766.6 349.539 1784.68 C 349.251 1787.51 349.28 1787.39 350.97 1789.7 C 354.046 1791.01 355.456 1791.17 358.653 1790.12 C 366.549 1787.51 373.759 1781.9 381.2 1778.15 C 396.174 1770.6 412.627 1763.81 428.539 1758.51 C 450.977 1751.03 493.702 1739.07 515.749 1750 L 516.238 1751.49 C 503.814 1755.84 480.454 1757.9 466.02 1761.2 C 433.539 1768.65 365.03 1797.63 340.234 1818.81 C 337.238 1821.37 335.621 1823.44 335.388 1827.42 C 337.813 1830.38 339.516 1830.42 343.14 1829.37 C 353.657 1826.3 363.348 1818.05 373.073 1812.92 A 881.169 881.169 0 0 1 421.821 1789.61 C 483.135 1762.69 554.225 1759.39 620.256 1756.39 C 634.177 1755.76 649.494 1752.51 663.209 1755.73 C 684.384 1760.69 702.559 1785.83 713.634 1802.85 C 691.306 1829.57 677.656 1866.82 670.43 1900.61 C 668.466 1909.79 666.487 1919.55 666.107 1928.94 C 665.838 1935.63 667.085 1942.61 666.251 1949.22 C 665.978 1951.38 665.628 1953.23 664.153 1954.94 C 656.056 1964.32 641.122 1972 628.953 1972.47 C 619.328 1972.83 608.739 1969.76 599.263 1967.98 C 580.005 1964.37 560.7 1960.29 541.325 1957.38 C 496.56 1950.66 328.58 1939.92 299.709 1911.94 C 266.877 1880.13 263.672 1689.44 264.013 1637.82 C 265.758 1610.25 266.223 1582.59 268.126 1555.03 A 891.895 891.895 0 0 1 281.964 1452.71 C 285.868 1433.6 292.334 1414.49 297.408 1395.6 C 299.64 1387.29 303.841 1376.4 299.218 1368.39 C 296.664 1367.24 296.868 1367.27 294.238 1368.23 C 278.137 1386.41 259.675 1494.17 256.676 1521.38 C 253.415 1550.96 252.281 1580.82 251.28 1610.55 C 248.575 1690.91 250.183 1773.25 264.939 1852.48 C 268.996 1874.26 273.404 1901.99 288.073 1919.51 C 312.794 1949.02 425.778 1957.56 465.329 1960.79 C 397.185 1977.57 327.668 1981.02 257.883 1974.7 C 192.56 1968.78 129.132 1953.69 67.0267 1933.05 C 59.5744 1930.57 42.2049 1926.42 37.289 1920.53 C 36.6107 1909.96 38.0598 1899.02 38.8597 1888.44 A 822.705 822.705 0 0 1 47.5137 1812.26 C 72.0226 1662.12 121.393 1542.38 217.486 1423.97 C 248.837 1385.33 304.177 1321.81 347.823 1300.36 C 365.611 1291.62 386.119 1287.55 405.69 1285.51 z"/>
<path transform="translate(10,18)" fill="rgb(47,34,36)" d="M 784.102 1130.61 C 786.266 1130.5 789.15 1130.8 790.976 1132.17 C 792.931 1133.64 793.821 1134.97 793.911 1137.45 C 794.018 1140.36 791.545 1142.54 789.719 1144.49 C 787.466 1145.22 786.059 1144.71 783.82 1144.13 C 782.484 1142.76 781.719 1142.41 781.301 1140.46 C 780.394 1136.23 781.842 1133.95 784.102 1130.61 z"/>
</svg>